# xmcd CD database file
#
# Track frame offsets:
#	150
#	6126
#	26293
#	43850
#	85217
#	102573
#	120945
#	132812
#	160943
#	173903
#	201901
#	232275
#	248539
#	263626
#	302079
#
# Disc length: 4137 seconds
#
# Revision: 0
# Processed by: cddbd v1.5.1PL2 Copyright (c) Steve Scherf et al.
# Submitted via: CDex 1.51
#
DISCID=be10270f
DTITLE=Yamanaka Chihiro - Universal a GO GO!!
DYEAR=2006
DGENRE=Jazz
TTITLE0=The Backstroke - Chihiro Ymanaka
TTITLE1=Grand Central - Cannonball Adderley Quintet
TTITLE2=Something's Coming - Oscar Peterson Trio
TTITLE3=Secret Love - Art Blakey and The Jazz Messengers
TTITLE4=Dingy-Dong Day - Marc Johnson
TTITLE5=I've Found a New Baby - Lester Young feat. Nat "King" Cole
TTITLE6=Madalena - Elis Regina
TTITLE7=Tres Palabras(Three Words) - Charlie Haden
TTITLE8=Sesame Street - Oscar Peterson Trio and The Singers Unlimited
TTITLE9=Zaire - Courtney Pine
TTITLE10=Tell Me a Bedtime Story - Quincy Jones
TTITLE11=Carnival - The Cardigans
TTITLE12=Marmaduke - The Roy Hargrove, Christian McBride, Stephen Scott Trio
TTITLE13=Rainbow - Leith Jarrett
TTITLE14=Graceful Ghost - Chihiro Yamanaka
EXTD=YEAR: 2006
EXTT0=
EXTT1=
EXTT2=
EXTT3=
EXTT4=
EXTT5=
EXTT6=
EXTT7=
EXTT8=
EXTT9=
EXTT10=
EXTT11=
EXTT12=
EXTT13=
EXTT14=
PLAYORDER=
